<?xml version="1.0" encoding="UTF-8"?>
<svg id="Layer_2" data-name="Layer 2" xmlns="http://www.w3.org/2000/svg" xmlns:xlink="http://www.w3.org/1999/xlink" viewBox="0 0 596.71 140.05">
  <defs>
    <style>
      .cls-1 {
        fill: #728791;
      }

      .cls-2 {
        fill: #1d6589;
      }

      .cls-3 {
        fill: #1b6486;
      }

      .cls-4 {
        fill: #0e0d0e;
      }

      .cls-5 {
        fill: #1e7297;
      }

      .cls-6 {
        fill: url(#linear-gradient-2);
      }

      .cls-7 {
        fill: #8b8a8a;
      }

      .cls-8 {
        fill: #b6b6b8;
      }

      .cls-9 {
        fill: #185575;
      }

      .cls-10 {
        fill: url(#linear-gradient);
      }

      .cls-11 {
        fill: #c6d6dc;
      }

      .cls-12 {
        fill: #080707;
      }

      .cls-13 {
        fill: #969698;
      }

      .cls-14 {
        fill: #0f0e0e;
      }

      .cls-15 {
        fill: #8fa9b8;
      }

      .cls-16 {
        fill: #abb7bb;
      }

      .cls-17 {
        fill: #1e688a;
      }

      .cls-18 {
        fill: #5f6c71;
      }

      .cls-19 {
        fill: #fff;
      }

      .cls-20 {
        fill: #a7a7a8;
      }

      .cls-21 {
        fill: #97aab7;
      }

      .cls-22 {
        fill: #81a2af;
      }

      .cls-23 {
        fill: #1e1e1d;
      }

      .cls-24 {
        fill: #1f1e1d;
      }

      .cls-25 {
        opacity: .72;
      }

      .cls-26 {
        fill: #117b97;
      }

      .cls-27 {
        fill: #b5c5ce;
      }

      .cls-28 {
        fill: #070a0c;
      }
    </style>
    <linearGradient id="linear-gradient" x1="451.1" y1="1911.17" x2="512.97" y2="1974.15" gradientTransform="translate(-438.05 -1876.68)" gradientUnits="userSpaceOnUse">
      <stop offset="0" stop-color="#236b93"/>
      <stop offset=".34" stop-color="#1e729a"/>
      <stop offset=".53" stop-color="#739bb9"/>
      <stop offset=".72" stop-color="#8dbacd"/>
      <stop offset=".82" stop-color="#83a4b1"/>
      <stop offset="1" stop-color="#4d5357"/>
    </linearGradient>
    <linearGradient id="linear-gradient-2" x1="516.11" y1="1910.61" x2="572.02" y2="1968.29" gradientTransform="translate(-438.05 -1876.68)" gradientUnits="userSpaceOnUse">
      <stop offset="0" stop-color="#f1f2f2"/>
      <stop offset="1" stop-color="#5a5b5f"/>
    </linearGradient>
  </defs>
  <g id="Layer_1-2" data-name="Layer 1">
    <g>
      <polygon class="cls-19" points="171.39 65.31 131.69 65.31 130.08 76.45 143.62 76.45 136.66 123.46 149.28 123.46 156.25 76.45 169.79 76.45 171.39 65.31"/>
      <path class="cls-19" d="M203.22,65.31l-5.51,37.51c-.99,7.04-4.21,10.32-9.87,10.32-6.73,0-9.26-3.77-8.11-11.79l5.28-36.04h-12.39l-5.05,34.48c-2.29,15.64,6.04,24.74,19.66,24.74,15.15,0,21.19-8.19,23.18-21.21l5.51-38h-12.7Z"/>
      <path class="cls-19" d="M257.46,88.24l.23-1.15c2.07-13.19-5.51-21.79-16.68-21.79h-21.88l-8.57,58.15h12.55l2.91-19.9h7.34l6.96,19.9h13.23l-7.96-21.05c6.5-1.97,10.79-7.04,11.86-14.17ZM244.99,85.37l-.08.9c-.61,3.85-3.14,6.31-7.57,6.31h-9.72l2.45-16.22h8.03c5.05,0,7.8,3.28,6.89,9.01Z"/>
      <path class="cls-19" d="M292.8,93.89c4.28-1.72,7.27-5.41,8.03-9.99l.15-.82c1.68-9.99-4.36-17.77-14.46-17.77h-22.95l-8.57,58.15h27.39c9.33,0,15.3-5.41,16.52-12.86l.15-.98c1.15-7.37-1.61-12.94-6.27-15.73ZM286.53,106.42l-.15.9c-.46,3.28-2.83,5.08-6.35,5.08h-10.94l1.99-13.43h9.56c4.36,0,6.66,2.62,5.89,7.45ZM288.06,84.15l-.15.57c-.46,2.78-2.6,4.42-6.2,4.42h-9.18l1.91-12.78h8.19c3.98,0,6.43,2.62,5.43,7.78Z"/>
      <path class="cls-19" d="M326.99,64.65c-13.95,0-23.19,9.42-25.54,25.39l-.53,3.85c-2.65,18.02,6.29,31.04,22.89,31.04,13.87,0,23.12-9.42,25.47-25.39l.53-3.85c2.65-18.02-6.29-31.04-22.81-31.04ZM336.99,94.63l-.68,4.59c-1.44,9.83-5.53,14.66-12.43,14.66-8.11,0-12.05-7.04-10.23-18.84l.68-4.59c1.44-9.91,5.61-14.66,12.43-14.66,8.19,0,11.98,7.04,10.23,18.84Z"/>
      <path d="M375.74,91.44l-1.53,10.24h12.62l-.15.57c-1.38,7.37-5.28,11.55-12.09,11.55-8.34.08-12.32-6.55-10.48-18.76l.69-4.83c1.3-8.6,5.13-14.5,12.7-14.5,5.66,0,9.26,3.36,9.56,9.83h12.39c.31-12.86-8.8-20.89-21.73-20.89-14.69,0-23.56,9.75-25.86,25.15l-.61,4.34c-2.68,18.1,5.36,30.8,19.74,30.8,6.81,0,11.7-2.95,14.46-7.54v6.47h8.72l4.74-32.43h-23.18ZM406.87,65.72l-8.57,58.15h12.62l8.57-58.15h-12.62ZM516.35,65.72h-14.31l-12.24,17.2-7.34-17.2h-27.54l-12.24,17.2-7.34-17.2h-13.92l12.85,27.68-22.64,30.47h14.46l13.69-19.08,8.11,19.08h25.32l13.69-19.08,8.11,19.08h13.92l-13.69-29.9,21.11-28.26ZM460.63,121.32l-12.53-27.35,20.69-27.69,12.59,27.12-20.75,27.92ZM525.37,99.63h22.34l1.61-10.73h-22.34l1.76-12.2h24.71l1.53-10.98h-37.26l-8.57,58.15h37.87l1.68-11.22h-25.25l1.91-13.02ZM579.69,65.72h-21.88l-8.57,58.15h12.55l2.91-19.9h7.34l6.96,19.9h13.23l-7.96-21.05c6.5-1.97,10.79-7.04,11.86-14.17l.23-1.15c2.07-13.19-5.51-21.79-16.68-21.79ZM583.67,85.79l-.08.9c-.61,3.85-3.14,6.31-7.57,6.31h-9.72l2.45-16.22h8.03c5.05,0,7.8,3.28,6.89,9.01Z"/>
      <path class="cls-26" d="M370.99,124.3c-6.13,0-11.21-2.36-14.71-6.81-4.28-5.46-5.86-13.72-4.45-23.25l.61-4.35c2.33-15.63,11.54-24.61,25.28-24.61,6.86,0,12.72,2.32,16.5,6.55,3.04,3.4,4.65,7.9,4.65,13.07h-11.27c-.5-6.26-4.16-9.83-10.11-9.83-7.2,0-11.79,5.2-13.28,15.03l-.69,4.84c-1.05,6.95-.23,12.39,2.37,15.71,1.96,2.51,4.83,3.78,8.54,3.78h.16c6.8,0,11.18-4.17,12.66-12.06l.36-1.34h-12.71l1.34-8.97h22l-4.56,31.16h-7.64v-7.97l-1.08,1.79c-2.81,4.67-7.77,7.25-13.97,7.25Z"/>
      <polygon class="cls-26" points="398.99 123.23 407.37 66.35 418.81 66.35 410.43 123.23 398.99 123.23"/>
      <polygon class="cls-26" points="495.38 123.23 487.02 103.57 472.91 123.23 448.25 123.23 439.9 103.57 425.79 123.23 412.84 123.23 434.95 93.48 422.36 66.35 434.96 66.35 442.55 84.13 455.2 66.35 467.99 66.35 447.42 93.89 460.52 122.49 482.08 93.48 469.48 66.35 482.08 66.35 489.67 84.13 502.33 66.35 515.12 66.35 494.54 93.89 507.98 123.23 495.38 123.23"/>
      <polygon class="cls-26" points="509.84 123.23 518.22 66.35 554.3 66.35 552.95 76.06 528.24 76.06 526.3 89.53 548.63 89.53 547.21 98.99 524.87 98.99 522.77 113.29 548.02 113.29 546.53 123.23 509.84 123.23"/>
      <path class="cls-26" d="M579.4,123.23l-6.96-19.9h-8.25l-2.91,19.9h-11.36l8.38-56.88h21.38c5.43,0,10.04,2.09,12.98,5.88,2.99,3.85,4.07,9.09,3.12,15.16l-.22,1.12c-1.04,6.92-5.1,11.78-11.44,13.69l-.63.19,7.87,20.83h-11.96ZM565.61,93.63h10.4c4.49,0,7.46-2.49,8.15-6.84l.08-.95c.47-2.9.01-5.37-1.32-7.09-1.32-1.71-3.45-2.61-6.15-2.61h-8.53l-2.64,17.49Z"/>
      <g class="cls-25">
        <g>
          <g>
            <path class="cls-28" d="M22.25,125.68c-.96-.26.61-1.81.37-2.48-.65-.13-3.29.41-3.19-.58l23.32-65.76-39,7.7.49-2.98c-.26-.25-3.17.49-3.85.5-.41,0-.42.05-.37-.37l5.93-24.57,76.41-17.31c.61-.02-.86,3-.62,3.23l2.98-.49-.11,1c-11.6,33.88-22.46,68.01-33.43,102.1h-28.94Z"/>
            <path class="cls-10" d="M23.61,122.45h-2.98s.11-1.01.11-1.01c7.24-21.33,15.67-42.33,22.75-63.71.2-.6,1.44-4.4,1.24-4.6L1.01,61.08l5.58-23.11,3.85-1.12,71.06-15.77c-.07.69-.32,1.33-.5,1.99-.49.79-.98,1.62-1.49,2.48l-.92,3.67c-7.81,23.87-15.62,47.74-23.43,71.61-.42,2.27-1.04,4.75-2.24,6.71-.22,1.63-.63,3.27-1.23,4.91v.81c-.98,2.97-1.72,6.03-2.87,8.95-.45.55-3.02.1-3.86.24l-.09-.4c-1.45-.07-2.91-.19-4.38-.35-2.75.33-5.53.37-8.35.11l-.6.14c-3.3.38-6.64.38-9.94,0,.87-.02,1.53.15,1.99.49Z"/>
            <g>
              <path class="cls-17" d="M58.4,100.34c-2.2,6.81-4.17,13.71-6.45,20.5-.46,1.36-.81,2.94-1.62,4.09h-27.2c-.04-.66.07-1.59.87-1.74l25.22-.12c2.69-7.67,5.2-15.48,7.7-23.23.41-.24.91-.07,1.49.5Z"/>
              <path class="cls-5" d="M71.31,54.88c.66-1.23,2.29-1.58,1.74.25-4.97,15.03-9.8,30.15-14.66,45.22-.65.54-.94-.17-1.49-.5,4.82-14.98,9.5-30.01,14.41-44.97Z"/>
              <path class="cls-3" d="M71.31,54.88c3.36-10.22,6.72-20.45,10.16-30.65l2.26-.66c-3.4,10.57-7.2,21.01-10.68,31.55.26-1.34-.9-.56-1.74-.25Z"/>
              <path class="cls-11" d="M80.01,25.81c-7.93,24.97-16.4,49.8-24.35,74.78-.28.69-.54,1.28-.5.25,7.88-25.15,15.79-50.33,24.35-75.28.47-.97.77-.69.5.25Z"/>
              <path class="cls-2" d="M19.89,58.6c7.95-1.55,15.89-3.23,23.85-4.72.2.21-.32,2-.84,2.03-7.49,1.53-15.02,2.91-22.51,4.43-1.75.43-1.84-1.11-.5-1.74Z"/>
              <path class="cls-9" d="M19.89,58.6c-.32.92-.9,1.84.5,1.74-5.21,1.05-10.39,2.39-15.65,3.23.07-.83.04-2.09.99-2.36,4.7-.97,9.46-1.69,14.17-2.6Z"/>
              <path class="cls-27" d="M31.56,121.95c1.62-.15,3.24-.2,4.86-.15.73.06.79.37.11.64-4.3.03-8.62-.02-12.92,0l-1.99-.49c3.31,0,6.63-.01,9.94,0Z"/>
              <path class="cls-22" d="M40.51,121.71c1.9-.05,3.77.34.75.75-1.57.03-3.15,0-4.72,0,.14-.75-.38-.48-.86-.5-1.37-.05-2.75,0-4.11,0,.26-.41.94-.25,1.36-.25,2.52-.03,5.06-.02,7.58,0Z"/>
              <path class="cls-16" d="M53.43,108.04c-.7,1.02-.7.4-.5-.5.71-2.24,1.53-4.47,2.24-6.71.19.56.25.03.5-.25-.78,2.46-1.46,4.98-2.24,7.45Z"/>
              <path class="cls-1" d="M52.93,107.55v.75s.5-.25.5-.25c-.55,1.75-1.17,3.48-1.74,5.22-.47-.24-.2-.87-.14-1.25.26-1.54.91-2.98,1.38-4.46Z"/>
              <path class="cls-18" d="M40.51,121.71c1.47.01,3.75-.22,5.08.01.29.05.59.15.63.48-.48-.22-1.02.23-1.24.25-1.12.13-2.55-.02-3.73,0l1.49-.49-2.23-.25Z"/>
              <path class="cls-21" d="M81,23.07c-.29,1.05-.7,1.82-.99,2.73.04-.66.01-.57-.5-.25.34-.99.71-2.01,1.12-2.98l.37.5Z"/>
              <path class="cls-15" d="M17.15,37.24c-1.11,1.02-2.58,1.55-3.91,2.43-3.01,2-5.05,4.46-7.27,7.26l2.23-7.58,8.95-2.1Z"/>
            </g>
          </g>
          <g>
            <path class="cls-14" d="M96.16,16.86c.27.12.33.36.15.36-.73.02,1.03-.56,1.09.14l-.89.72c-1.95.6-3.9,1.03-5.84,1.29-12.44,38.32-24.95,76.61-37.55,114.88l-.43.37h35.78c-.18-.08-.44-.25-.4-.38,10.5-31.89,21.75-65.14,32.58-96.89,9.52-1.96,19.1-3.65,28.68-5.27.73-.12,1.48-.18,2.22-.23s1.5-.07,2.25-.08l.13.3c.63-.21,1.08-.14,1.36.19l-.08.52-33.27,5.95-10.7,31.89-.36.1-1.05,2.53c.29.1.31.39.06.86l-20.4,61.52-.48.39c-5.66.08-11.33.05-17.01-.09l-.42-.32c-1.42.1-2.86.17-4.31.2l-.22.3h-9.92c-.2.66-.52,1-.96,1-.45.99-.8.38-.5-.5.07-.19.33-.92.25-.99h-4.47s.11-1.01.11-1.01L89.49,18.52c.09-.31.34-.32.58-.42,1.51-.61,4.39-.85,6.09-1.24Z"/>
            <path class="cls-12" d="M96.16,16.86c25.36-5.73,50.81-11.16,76.18-16.86l.84.1-1,4.84c.33.01.66-.01.99,0,1.35-.39,2-.04.5.5.04.44-.32.68-1.08.73-1.71,8.1-3.43,16.24-5.16,24.42-2.02.76-9.46,2.26-11.3,1.93-.28-.05-.56-.14-.84-.24-.99.11-1.98.28-2.98.25l1.49-.74.82-.66c3.86-.65,7.63-1.38,11.31-2.2l5.39-27.13-67.93,14.77c-1.98.37-3.98.65-5.99.82h-1.49s.25-.5.25-.5Z"/>
            <path class="cls-4" d="M124.48,44.44c-9.46,27.35-17.84,55.21-26.83,82.73-.8,1.14-.7.16-.5-.75l.65-3.07c7.73-24.87,15.49-49.76,23.92-74.41.34-.98.75-1.94,1.17-2.9s.87-1.9,1.34-2.84c.49-.23.57.19.25,1.24Z"/>
            <path class="cls-23" d="M173.18,4.94c.75-.3,1.84-.61,2.63-.72.37-.05.69-.18.6.35l-5.76,29.15-45.36,8.31c-.17.84-.53,1.62-.8,2.42-.02-.4.15-1.03-.25-1.24-.82-.44-.27-2.15.58-2.44,14.95-2.6,29.85-5.3,44.71-8.09l5.55-27.01c-.67.2-1.14.12-1.4-.23l.49-.25v-.24c-.33-.01-.66,0-.99,0Z"/>
            <path class="cls-24" d="M97.15,126.43v.99s.5-.25.5-.25c-1.18,3.61-2.21,8.68-3.78,11.99-.16.33-.19.74-.6.89l-38.59-.21c-.07-1.16.61-2.2.99-3.23-.06.53-.03.56.5.5.42.24.44.74.07,1.48,12.19.14,24.35.18,36.47.12,1.08-4.3,2.56-8.39,4.45-12.29Z"/>
            <path class="cls-13" d="M173.67,5.44c.43-.11,1.94-.62,1.98-.13l-5.74,27.92-45.02,8.02c-.61.21-.48,1.43-.66,1.95-9.59,27.52-18.06,55.51-27.08,83.23-1.35,4.16-2.74,8.32-4.02,12.51l-.37.38-37.11-.22c-.12-.11.38-1.67.5-1.99.1-.29.46-1.45.66-1.5h14.74s.09.34.09.34c6.02.13,11.88.16,17.57.1,7.07-20.85,14.03-41.75,20.89-62.71l-.29-.09,11.74-34.97,33.73-6.02c3.98-.43,7.99-1.21,11.88-2.04l4.69-23.76c.14-.99,1.1-.86,1.82-1.04Z"/>
            <path class="cls-8" d="M109.82,73.26l1.24-2.48-.82,3.28-20.44,62.05c-.49.85-1.01.2-1.71.25-1.4.1-1.95.01-3.23,0-5.84-.06-11.69.07-17.52,0-.4-.31,0-.45.37-.5,1-.13,2.21.07,3.25.01.32-.02.57-.26.6-.26,5.21-.23,11.86.63,16.78.01.27-.03.56.02.74-.26l20.74-62.12Z"/>
            <g>
              <path class="cls-6" d="M97.4,17.36c12.72-2.84,25.59-5.54,38.25-8.33,12.08-2.66,24.15-5.4,36.28-7.82l-5.58,28.08c-.28.38-7.79,1.54-8.93,1.75s-2.4.5-3.63.72c-10.96,2.02-21.98,3.81-32.92,5.96l-32.42,96.9h-35.78l-.08-.43c12.81-38.28,24.96-76.8,37.72-115.1,2.33-.47,4.73-1.21,7.08-1.74Z"/>
              <path class="cls-20" d="M114.05,16.86c-11.11,6.41-17.91,10.27-26.33,20.37-.48-.26-.47-.96,0-2.12l4.62-13.56c6.34-1.62,12.66-3.17,18.95-4.63l.39.22c1.21-.83,2-.93,2.37-.29Z"/>
              <path class="cls-7" d="M87.71,37.24c-.45.54-.73,1.29-1.37,1.74l-.13-.37,5.88-17.54,23.09-5.43c1.15.18-.84,1.06-1.13,1.23-.84-.4-2.44,1.12-2.7.95-.04-.03-.01-.43-.19-.47-.37-.08-4.64,1.23-5.51,1.43-4.3.98-8.66,1.73-12.92,2.86l-4.7,13.56-.32,2.04Z"/>
            </g>
          </g>
        </g>
      </g>
    </g>
  </g>
</svg>